<svg xmlns="http://www.w3.org/2000/svg" width="1200" height="630" viewBox="0 0 1200 630" role="img" aria-label="Quantum Graph Code Editor social preview image">
  <defs>
    <linearGradient id="bg" x1="0" x2="1" y1="0" y2="1">
      <stop offset="0%" stop-color="#0b1224" />
      <stop offset="100%" stop-color="#1e1b4b" />
    </linearGradient>
    <radialGradient id="glowA" cx="0.22" cy="0.2" r="0.45">
      <stop offset="0%" stop-color="#60a5fa" stop-opacity="0.45" />
      <stop offset="100%" stop-color="#60a5fa" stop-opacity="0" />
    </radialGradient>
    <radialGradient id="glowB" cx="0.86" cy="0.78" r="0.55">
      <stop offset="0%" stop-color="#fb923c" stop-opacity="0.35" />
      <stop offset="100%" stop-color="#fb923c" stop-opacity="0" />
    </radialGradient>
  </defs>
  <rect width="1200" height="630" fill="url(#bg)" />
  <rect width="1200" height="630" fill="url(#glowA)" />
  <rect width="1200" height="630" fill="url(#glowB)" />

  <g transform="translate(170 130)">
    <rect x="0" y="0" width="440" height="360" rx="24" fill="rgba(15,23,42,0.55)" stroke="rgba(148,163,184,0.4)" />
    <g transform="translate(220 180)">
      <circle r="92" fill="none" stroke="rgba(147,197,253,0.9)" stroke-width="5" />
      <circle cx="-78" cy="-38" r="16" fill="#dbeafe" />
      <circle cx="70" cy="-64" r="16" fill="#fdba74" />
      <circle cx="74" cy="68" r="16" fill="#60a5fa" />
      <line x1="-78" y1="-38" x2="70" y2="-64" stroke="#f8fafc" stroke-width="3" stroke-opacity="0.9" />
      <line x1="70" y1="-64" x2="74" y2="68" stroke="#f8fafc" stroke-width="3" stroke-opacity="0.9" />
      <line x1="74" y1="68" x2="-78" y2="-38" stroke="#f8fafc" stroke-width="3" stroke-opacity="0.9" />
    </g>
  </g>

  <g transform="translate(660 188)" fill="#f8fafc" font-family="Inter, Segoe UI, sans-serif">
    <text x="0" y="0" font-size="54" font-weight="700">Quantum Graph Code Editor</text>
    <text x="0" y="56" font-size="30" fill="#cbd5e1">Build graph codes visually and compute matrices instantly</text>
    <text x="0" y="124" font-size="24" fill="#93c5fd">Cluster and message nodes</text>
    <text x="0" y="162" font-size="24" fill="#93c5fd">Interactive stabilizer output</text>
    <text x="0" y="200" font-size="24" fill="#93c5fd">Accessible keyboard and motion controls</text>
  </g>
</svg>
